<mxfile host="app.diagrams.net" modified="2021-06-04T07:30:58.783Z" agent="5.0 (Windows NT 10.0; Win64; x64) AppleWebKit/537.36 (KHTML, like Gecko) Chrome/90.0.4430.212 Safari/537.36" etag="YfOqLBxugsAS-Mvbo0ed" version="14.7.4" type="github">
  <diagram id="fK6YoVm5THp6q6ON8aku" name="Page-1">
    <mxGraphModel dx="1022" dy="579" grid="1" gridSize="10" guides="1" tooltips="1" connect="1" arrows="1" fold="1" page="1" pageScale="1" pageWidth="850" pageHeight="1100" math="0" shadow="0">
      <root>
        <mxCell id="0" />
        <mxCell id="1" parent="0" />
        <mxCell id="Wu1C852Lp-hqCvcJk5wa-2" style="edgeStyle=orthogonalEdgeStyle;rounded=0;orthogonalLoop=1;jettySize=auto;html=1;dashed=1;" parent="1" source="Wu1C852Lp-hqCvcJk5wa-3" edge="1">
          <mxGeometry relative="1" as="geometry">
            <mxPoint x="380" y="310" as="targetPoint" />
          </mxGeometry>
        </mxCell>
        <mxCell id="Wu1C852Lp-hqCvcJk5wa-21" style="edgeStyle=orthogonalEdgeStyle;rounded=0;orthogonalLoop=1;jettySize=auto;html=1;dashed=1;" parent="1" source="Wu1C852Lp-hqCvcJk5wa-3" target="Wu1C852Lp-hqCvcJk5wa-18" edge="1">
          <mxGeometry relative="1" as="geometry">
            <Array as="points">
              <mxPoint x="230" y="350" />
              <mxPoint x="320" y="350" />
              <mxPoint x="320" y="795" />
            </Array>
          </mxGeometry>
        </mxCell>
        <mxCell id="Wu1C852Lp-hqCvcJk5wa-33" style="edgeStyle=orthogonalEdgeStyle;rounded=0;orthogonalLoop=1;jettySize=auto;html=1;entryX=0.5;entryY=0;entryDx=0;entryDy=0;dashed=1;" parent="1" source="Wu1C852Lp-hqCvcJk5wa-3" target="Wu1C852Lp-hqCvcJk5wa-17" edge="1">
          <mxGeometry relative="1" as="geometry">
            <Array as="points">
              <mxPoint x="210" y="440" />
              <mxPoint x="210" y="440" />
            </Array>
          </mxGeometry>
        </mxCell>
        <mxCell id="Wu1C852Lp-hqCvcJk5wa-3" value="Customer&lt;br&gt;&lt;font style=&quot;font-size: 10px&quot;&gt;[Person]&lt;/font&gt;" style="shape=umlActor;verticalLabelPosition=bottom;verticalAlign=top;html=1;outlineConnect=0;" parent="1" vertex="1">
          <mxGeometry x="200" y="280" width="30" height="60" as="geometry" />
        </mxCell>
        <mxCell id="Wu1C852Lp-hqCvcJk5wa-4" style="edgeStyle=orthogonalEdgeStyle;rounded=0;orthogonalLoop=1;jettySize=auto;html=1;entryX=1;entryY=0.5;entryDx=0;entryDy=0;dashed=1;" parent="1" source="Wu1C852Lp-hqCvcJk5wa-6" target="Wu1C852Lp-hqCvcJk5wa-9" edge="1">
          <mxGeometry relative="1" as="geometry" />
        </mxCell>
        <mxCell id="Wu1C852Lp-hqCvcJk5wa-5" style="edgeStyle=orthogonalEdgeStyle;rounded=0;orthogonalLoop=1;jettySize=auto;html=1;entryX=0.803;entryY=-0.038;entryDx=0;entryDy=0;entryPerimeter=0;dashed=1;" parent="1" source="Wu1C852Lp-hqCvcJk5wa-6" target="Wu1C852Lp-hqCvcJk5wa-18" edge="1">
          <mxGeometry relative="1" as="geometry">
            <mxPoint x="645.04" y="650" as="targetPoint" />
          </mxGeometry>
        </mxCell>
        <mxCell id="Wu1C852Lp-hqCvcJk5wa-6" value="Coffee Shop Employee/Owner&lt;br&gt;&lt;font style=&quot;font-size: 10px&quot;&gt;[Person]&lt;/font&gt;" style="shape=umlActor;verticalLabelPosition=bottom;verticalAlign=top;html=1;outlineConnect=0;" parent="1" vertex="1">
          <mxGeometry x="630" y="280" width="30" height="60" as="geometry" />
        </mxCell>
        <mxCell id="Wu1C852Lp-hqCvcJk5wa-7" style="edgeStyle=orthogonalEdgeStyle;rounded=0;orthogonalLoop=1;jettySize=auto;html=1;exitX=0.75;exitY=0;exitDx=0;exitDy=0;entryX=0.85;entryY=1.044;entryDx=0;entryDy=0;entryPerimeter=0;fillColor=#d80073;strokeColor=#A50040;dashed=1;" parent="1" source="Wu1C852Lp-hqCvcJk5wa-18" target="Wu1C852Lp-hqCvcJk5wa-9" edge="1">
          <mxGeometry relative="1" as="geometry">
            <Array as="points">
              <mxPoint x="482" y="760" />
            </Array>
            <mxPoint x="440" y="650" as="sourcePoint" />
            <mxPoint x="490" y="350" as="targetPoint" />
          </mxGeometry>
        </mxCell>
        <mxCell id="Wu1C852Lp-hqCvcJk5wa-9" value="Payment Gateway&lt;br&gt;&lt;font style=&quot;font-size: 10px&quot;&gt;[Software System]&lt;/font&gt;" style="rounded=0;whiteSpace=wrap;html=1;" parent="1" vertex="1">
          <mxGeometry x="380" y="280" width="120" height="60" as="geometry" />
        </mxCell>
        <mxCell id="Wu1C852Lp-hqCvcJk5wa-10" value="Orders coffee, select coffee shop, track order status and get authenticated using" style="text;html=1;strokeColor=none;fillColor=none;align=center;verticalAlign=middle;whiteSpace=wrap;rounded=0;" parent="1" vertex="1">
          <mxGeometry x="220" y="460" width="80" height="70" as="geometry" />
        </mxCell>
        <mxCell id="Wu1C852Lp-hqCvcJk5wa-11" value="Makes payment using" style="text;html=1;strokeColor=none;fillColor=none;align=center;verticalAlign=middle;whiteSpace=wrap;rounded=0;" parent="1" vertex="1">
          <mxGeometry x="280" y="270" width="50" height="40" as="geometry" />
        </mxCell>
        <mxCell id="Wu1C852Lp-hqCvcJk5wa-12" value="Receives payment using" style="text;html=1;strokeColor=none;fillColor=none;align=center;verticalAlign=middle;whiteSpace=wrap;rounded=0;" parent="1" vertex="1">
          <mxGeometry x="540" y="270" width="50" height="40" as="geometry" />
        </mxCell>
        <mxCell id="Wu1C852Lp-hqCvcJk5wa-13" value="Receives,&lt;br&gt;confirms, updates status of the order and get authenticated using" style="text;html=1;strokeColor=none;fillColor=none;align=center;verticalAlign=middle;whiteSpace=wrap;rounded=0;" parent="1" vertex="1">
          <mxGeometry x="540" y="475" width="110" height="40" as="geometry" />
        </mxCell>
        <mxCell id="Wu1C852Lp-hqCvcJk5wa-14" value="For payments, redirects to" style="text;html=1;strokeColor=none;fillColor=none;align=center;verticalAlign=middle;whiteSpace=wrap;rounded=0;" parent="1" vertex="1">
          <mxGeometry x="420" y="465" width="70" height="40" as="geometry" />
        </mxCell>
        <mxCell id="Wu1C852Lp-hqCvcJk5wa-15" value="" style="swimlane;startSize=0;dashed=1;" parent="1" vertex="1">
          <mxGeometry x="100" y="700" width="630" height="395" as="geometry">
            <mxRectangle x="100" y="700" width="50" height="40" as="alternateBounds" />
          </mxGeometry>
        </mxCell>
        <mxCell id="Wu1C852Lp-hqCvcJk5wa-16" value="Uber Coffee Shop&lt;br&gt;&lt;font style=&quot;font-size: 10px&quot;&gt;[Software System]&lt;/font&gt;" style="text;html=1;align=center;verticalAlign=middle;resizable=0;points=[];autosize=1;strokeColor=none;" parent="Wu1C852Lp-hqCvcJk5wa-15" vertex="1">
          <mxGeometry y="365" width="110" height="30" as="geometry" />
        </mxCell>
        <mxCell id="Wu1C852Lp-hqCvcJk5wa-30" style="edgeStyle=orthogonalEdgeStyle;rounded=0;orthogonalLoop=1;jettySize=auto;html=1;entryX=0.25;entryY=0;entryDx=0;entryDy=0;dashed=1;" parent="Wu1C852Lp-hqCvcJk5wa-15" source="Wu1C852Lp-hqCvcJk5wa-17" target="Wu1C852Lp-hqCvcJk5wa-25" edge="1">
          <mxGeometry relative="1" as="geometry">
            <Array as="points">
              <mxPoint x="110" y="200" />
              <mxPoint x="380" y="200" />
              <mxPoint x="380" y="260" />
            </Array>
          </mxGeometry>
        </mxCell>
        <mxCell id="Wu1C852Lp-hqCvcJk5wa-17" value="&lt;font style=&quot;font-size: 20px&quot;&gt;Mobile App&lt;br&gt;&lt;/font&gt;&lt;span style=&quot;font-size: 10px&quot;&gt;[Container: Android, ios]&lt;/span&gt;&lt;br&gt;Provides functionality to select coffee shop, order coffee and track status" style="rounded=0;whiteSpace=wrap;html=1;fillColor=#1ba1e2;strokeColor=#006EAF;fontColor=#ffffff;" parent="Wu1C852Lp-hqCvcJk5wa-15" vertex="1">
          <mxGeometry x="10" y="70" width="200" height="70" as="geometry" />
        </mxCell>
        <mxCell id="Wu1C852Lp-hqCvcJk5wa-29" style="edgeStyle=orthogonalEdgeStyle;rounded=0;orthogonalLoop=1;jettySize=auto;html=1;entryX=0.5;entryY=0;entryDx=0;entryDy=0;dashed=1;" parent="Wu1C852Lp-hqCvcJk5wa-15" source="Wu1C852Lp-hqCvcJk5wa-18" target="Wu1C852Lp-hqCvcJk5wa-25" edge="1">
          <mxGeometry relative="1" as="geometry" />
        </mxCell>
        <mxCell id="Wu1C852Lp-hqCvcJk5wa-18" value="&lt;font&gt;&lt;span style=&quot;font-size: 20px&quot;&gt;Single Page App&lt;/span&gt;&lt;br&gt;&lt;font style=&quot;font-size: 10px&quot;&gt;[Container: React]&lt;/font&gt;&lt;br&gt;&lt;/font&gt;Provides functionality to select coffee shop, order coffee and track status" style="rounded=0;whiteSpace=wrap;html=1;fillColor=#1ba1e2;strokeColor=#006EAF;fontColor=#ffffff;" parent="Wu1C852Lp-hqCvcJk5wa-15" vertex="1">
          <mxGeometry x="350" y="60" width="240" height="70" as="geometry" />
        </mxCell>
        <mxCell id="Wu1C852Lp-hqCvcJk5wa-27" style="edgeStyle=orthogonalEdgeStyle;rounded=0;orthogonalLoop=1;jettySize=auto;html=1;entryX=1;entryY=0.5;entryDx=0;entryDy=0;entryPerimeter=0;dashed=1;" parent="Wu1C852Lp-hqCvcJk5wa-15" source="Wu1C852Lp-hqCvcJk5wa-25" target="Wu1C852Lp-hqCvcJk5wa-26" edge="1">
          <mxGeometry relative="1" as="geometry" />
        </mxCell>
        <mxCell id="Wu1C852Lp-hqCvcJk5wa-25" value="&lt;font&gt;&lt;span style=&quot;font-size: 20px&quot;&gt;Coffee Shop API&lt;/span&gt;&lt;br&gt;&lt;font style=&quot;font-size: 10px&quot;&gt;[Container: Java, Sprint Boot]&lt;/font&gt;&lt;br&gt;&lt;/font&gt;Provides functionality to select coffee shop, order coffee and track status using JSON/HTTP API" style="rounded=0;whiteSpace=wrap;html=1;fillColor=#1ba1e2;strokeColor=#006EAF;fontColor=#ffffff;" parent="Wu1C852Lp-hqCvcJk5wa-15" vertex="1">
          <mxGeometry x="350" y="260" width="240" height="80" as="geometry" />
        </mxCell>
        <mxCell id="Wu1C852Lp-hqCvcJk5wa-26" value="Database&lt;br&gt;&lt;font style=&quot;font-size: 10px&quot;&gt;[Container: ]&lt;br&gt;Stores user registration information, menu, cart, order details etc.&lt;br&gt;Services have their own database&lt;br&gt;&lt;/font&gt;" style="shape=cylinder3;whiteSpace=wrap;html=1;boundedLbl=1;backgroundOutline=1;size=15;fillColor=#1ba1e2;strokeColor=#006EAF;fontColor=#ffffff;" parent="Wu1C852Lp-hqCvcJk5wa-15" vertex="1">
          <mxGeometry x="70" y="235" width="180" height="130" as="geometry" />
        </mxCell>
        <mxCell id="Wu1C852Lp-hqCvcJk5wa-28" value="Reads from and writes to" style="text;html=1;strokeColor=none;fillColor=none;align=center;verticalAlign=middle;whiteSpace=wrap;rounded=0;" parent="Wu1C852Lp-hqCvcJk5wa-15" vertex="1">
          <mxGeometry x="270" y="270" width="60" height="20" as="geometry" />
        </mxCell>
        <mxCell id="Wu1C852Lp-hqCvcJk5wa-31" value="Make API calls to&lt;br&gt;&lt;font style=&quot;font-size: 10px&quot;&gt;[JSON/HTTPS]&lt;/font&gt;" style="text;html=1;strokeColor=none;fillColor=none;align=center;verticalAlign=middle;whiteSpace=wrap;rounded=0;" parent="Wu1C852Lp-hqCvcJk5wa-15" vertex="1">
          <mxGeometry x="240" y="160" width="80" height="30" as="geometry" />
        </mxCell>
        <mxCell id="Wu1C852Lp-hqCvcJk5wa-32" value="Make API calls to&lt;br&gt;&lt;font style=&quot;font-size: 10px&quot;&gt;[JSON/HTTPS]&lt;/font&gt;" style="text;html=1;strokeColor=none;fillColor=none;align=center;verticalAlign=middle;whiteSpace=wrap;rounded=0;" parent="Wu1C852Lp-hqCvcJk5wa-15" vertex="1">
          <mxGeometry x="400" y="180" width="80" height="30" as="geometry" />
        </mxCell>
        <mxCell id="Wu1C852Lp-hqCvcJk5wa-22" value="Orders coffee, select coffee shop, track order status and get authenticated using" style="text;html=1;strokeColor=none;fillColor=none;align=center;verticalAlign=middle;whiteSpace=wrap;rounded=0;" parent="1" vertex="1">
          <mxGeometry x="110" y="465" width="80" height="70" as="geometry" />
        </mxCell>
        <mxCell id="Wu1C852Lp-hqCvcJk5wa-23" style="edgeStyle=orthogonalEdgeStyle;rounded=0;orthogonalLoop=1;jettySize=auto;html=1;entryX=0.194;entryY=1.033;entryDx=0;entryDy=0;entryPerimeter=0;fillColor=#d80073;strokeColor=#A50040;dashed=1;" parent="1" source="Wu1C852Lp-hqCvcJk5wa-17" target="Wu1C852Lp-hqCvcJk5wa-9" edge="1">
          <mxGeometry relative="1" as="geometry">
            <Array as="points">
              <mxPoint x="250" y="650" />
              <mxPoint x="403" y="650" />
            </Array>
          </mxGeometry>
        </mxCell>
        <mxCell id="Wu1C852Lp-hqCvcJk5wa-24" value="For payments, uses payment gateway SDK" style="text;html=1;strokeColor=none;fillColor=none;align=center;verticalAlign=middle;whiteSpace=wrap;rounded=0;" parent="1" vertex="1">
          <mxGeometry x="340" y="465" width="70" height="40" as="geometry" />
        </mxCell>
      </root>
    </mxGraphModel>
  </diagram>
</mxfile>
